<svg width="30" height="30" viewBox="0 0 30 30" fill="none" xmlns="http://www.w3.org/2000/svg">
<circle cx="15" cy="15" r="15" fill="#3D4143"/>
<path d="M22.175 8H8.825C8.6062 8 8.39635 8.08692 8.24164 8.24164C8.08692 8.39635 8 8.6062 8 8.825V22.175C8 22.3938 8.08692 22.6036 8.24164 22.7584C8.39635 22.9131 8.6062 23 8.825 23H16.01V17.1875H14.06V14.9375H16.01V13.25C15.9696 12.8538 16.0164 12.4536 16.147 12.0774C16.2777 11.7012 16.4891 11.3582 16.7663 11.0723C17.0436 10.7865 17.3801 10.5647 17.7521 10.4227C18.1242 10.2806 18.5228 10.2217 18.92 10.25C19.5037 10.2464 20.0872 10.2765 20.6675 10.34V12.365H19.475C18.53 12.365 18.35 12.815 18.35 13.4675V14.915H20.6L20.3075 17.165H18.35V23H22.175C22.2833 23 22.3906 22.9787 22.4907 22.9372C22.5908 22.8957 22.6818 22.835 22.7584 22.7584C22.835 22.6818 22.8957 22.5908 22.9372 22.4907C22.9787 22.3906 23 22.2833 23 22.175V8.825C23 8.71666 22.9787 8.60938 22.9372 8.50929C22.8957 8.40919 22.835 8.31825 22.7584 8.24164C22.6818 8.16503 22.5908 8.10426 22.4907 8.0628C22.3906 8.02134 22.2833 8 22.175 8Z" fill="white"/>
</svg>
