<svg width="30" height="30" viewBox="0 0 30 30" fill="none" xmlns="http://www.w3.org/2000/svg">
<circle cx="15" cy="15" r="15" fill="#3D4143"/>
<path d="M22.92 10.522C22.334 10.7883 21.7024 10.9634 21.048 11.0471C21.7176 10.6437 22.2351 10.0045 22.4786 9.23591C21.847 9.61641 21.1469 9.88275 20.4087 10.035C19.8075 9.3805 18.9628 9 18.004 9C16.2156 9 14.7545 10.4611 14.7545 12.2647C14.7545 12.5234 14.785 12.7745 14.8382 13.0104C12.1291 12.8735 9.71675 11.5722 8.11105 9.60119C7.82948 10.0806 7.66968 10.6437 7.66968 11.2373C7.66968 12.3712 8.24042 13.3757 9.12317 13.9465C8.58287 13.9465 8.08061 13.7943 7.63924 13.566V13.5888C7.63924 15.1717 8.76551 16.4958 10.2571 16.7926C9.77818 16.9236 9.27545 16.9419 8.78834 16.8459C8.99503 17.4946 9.39982 18.0622 9.94582 18.469C10.4918 18.8758 11.1516 19.1012 11.8323 19.1136C10.6784 20.0271 9.24797 20.5209 7.77621 20.5138C7.51748 20.5138 7.25874 20.4986 7 20.4682C8.44589 21.3966 10.1657 21.9369 12.0073 21.9369C18.004 21.9369 21.2991 16.96 21.2991 12.6452C21.2991 12.5006 21.2991 12.3636 21.2915 12.219C21.9307 11.7624 22.4786 11.1841 22.92 10.522Z" fill="white"/>
</svg>
