<svg width="30" height="30" viewBox="0 0 30 30" fill="none" xmlns="http://www.w3.org/2000/svg">
<rect width="30" height="30" rx="12" fill="#12181F"/>
<g clip-path="url(#clip0_183_667)">
<path d="M14 14V9C14 8.44772 14.4477 8 15 8C15.5523 8 16 8.44772 16 9V14H21C21.5523 14 22 14.4477 22 15C22 15.5523 21.5523 16 21 16H16V21C16 21.5523 15.5523 22 15 22C14.4477 22 14 21.5523 14 21V16H9C8.44772 16 8 15.5523 8 15C8 14.4477 8.44772 14 9 14H14Z" fill="white"/>
</g>
<defs>
<clipPath id="clip0_183_667">
<rect width="24" height="24" fill="white" transform="translate(3 3)"/>
</clipPath>
</defs>
</svg>
