<svg width="79" height="79" viewBox="0 0 79 79" fill="none" xmlns="http://www.w3.org/2000/svg">
<rect width="79" height="79" rx="39.5" fill="white"/>
<path d="M39 39.2857C37.8634 39.2857 36.7733 38.8342 35.9695 38.0305C35.1658 37.2267 34.7143 36.1366 34.7143 35C34.7143 33.8634 35.1658 32.7733 35.9695 31.9695C36.7733 31.1658 37.8634 30.7143 39 30.7143C40.1366 30.7143 41.2267 31.1658 42.0305 31.9695C42.8342 32.7733 43.2857 33.8634 43.2857 35C43.2857 35.5628 43.1749 36.1201 42.9595 36.6401C42.7441 37.16 42.4284 37.6325 42.0305 38.0305C41.6325 38.4284 41.16 38.7441 40.6401 38.9595C40.1201 39.1749 39.5628 39.2857 39 39.2857ZM39 23C35.8174 23 32.7652 24.2643 30.5147 26.5147C28.2643 28.7652 27 31.8174 27 35C27 44 39 57.2857 39 57.2857C39 57.2857 51 44 51 35C51 31.8174 49.7357 28.7652 47.4853 26.5147C45.2348 24.2643 42.1826 23 39 23Z" fill="black"/>
</svg>
