<svg width="63" height="56" viewBox="0 0 63 56" fill="none" xmlns="http://www.w3.org/2000/svg">
<rect x="0.5" width="62" height="56" rx="28" fill="white"/>
<path d="M19.5 40C18.675 40 17.969 39.7065 17.382 39.1195C16.795 38.5325 16.501 37.826 16.5 37V19C16.5 18.175 16.794 17.469 17.382 16.882C17.97 16.295 18.676 16.001 19.5 16H43.5C44.325 16 45.0315 16.294 45.6195 16.882C46.2075 17.47 46.501 18.176 46.5 19V37C46.5 37.825 46.2065 38.5315 45.6195 39.1195C45.0325 39.7075 44.326 40.001 43.5 40H19.5ZM31.5 29.5L43.5 22V19L31.5 26.5L19.5 19V22L31.5 29.5Z" fill="black"/>
</svg>
