<svg width="61" height="60" viewBox="0 0 61 60" fill="none" xmlns="http://www.w3.org/2000/svg">
<rect x="0.5" width="60" height="60" rx="30" fill="white"/>
<path d="M22.1311 28.1178C24.3711 32.52 27.98 36.1133 32.3822 38.3689L35.8044 34.9467C36.2244 34.5267 36.8467 34.3867 37.3911 34.5733C39.1333 35.1489 41.0156 35.46 42.9444 35.46C43.8 35.46 44.5 36.16 44.5 37.0156V42.4444C44.5 43.3 43.8 44 42.9444 44C28.3378 44 16.5 32.1622 16.5 17.5556C16.5 16.7 17.2 16 18.0556 16H23.5C24.3556 16 25.0556 16.7 25.0556 17.5556C25.0556 19.5 25.3667 21.3667 25.9422 23.1089C26.1133 23.6533 25.9889 24.26 25.5533 24.6956L22.1311 28.1178Z" fill="black"/>
</svg>
