<svg width="50" height="50" viewBox="0 0 50 50" fill="none" xmlns="http://www.w3.org/2000/svg">
<g clip-path="url(#clip0_239_2037)">
<path d="M24.71 20.6875H24.7308L34.9391 17.2083C34.9808 17.0208 34.9808 16.8333 34.9808 16.6667C34.9808 16.4792 34.96 16.3125 34.8975 16.1458C34.7308 15.6667 34.4183 15.1458 33.9808 14.7708V10.2083C33.9808 6.83333 32.7725 5.5 31.5225 4.72917C30.8766 2.77083 28.1891 0 22.9183 0C16.6683 0 11.96 6.1875 11.96 10.2083C11.96 11.875 11.8975 13.1875 11.835 14.1875C11.835 14.3958 11.8141 14.5833 11.8141 14.75C11.3558 15.1667 11.0433 15.7292 10.8975 16.2708C10.8766 16.3958 10.8558 16.5208 10.8558 16.6667C10.8558 18.2917 11.7725 20.6458 11.8975 20.9167C12.0225 21.2708 12.2933 21.5625 12.6475 21.7292C12.6683 21.8125 12.6891 21.9375 12.6891 22.1875C12.6891 24.3958 14.585 26.4792 15.6266 27.4792C15.5225 29.7708 14.8766 31.3542 13.96 31.75L5.7933 34.4583C3.4808 35.2292 1.75163 37.1042 1.14747 39.4792L0.0433005 43.8958C-0.0608661 44.3542 0.0433005 44.8542 0.334967 45.2292C0.626634 45.6042 1.08497 45.8333 1.56413 45.8333H24.9183C24.2933 45.0417 23.71 44.1667 23.1683 43.2292C21.7933 40.7917 20.835 37.8333 20.835 34.4792V26.125C20.835 23.6667 22.3975 21.5 24.71 20.6875Z" fill="#9D6CFF"/>
<path d="M48.9396 24.6411L38.0021 20.9203C37.6771 20.8078 37.3229 20.8078 36.9979 20.9203L26.0604 24.6411C25.425 24.8557 25 25.4495 25 26.1203V34.4912C25 44.7078 36.4042 49.6745 36.8896 49.8807C37.2813 50.0453 37.7187 50.0453 38.1104 49.8807C38.5958 49.6724 50 44.7078 50 34.4912V26.1203C50 25.4495 49.575 24.8557 48.9396 24.6411ZM44.3458 32.5411L38.6167 39.8328C37.8875 40.7641 36.5208 40.8995 35.6229 40.1286L31.9771 37.0037C31.1021 36.2557 31 34.9391 31.7521 34.0661C32.5 33.1932 33.8167 33.0932 34.6875 33.8412L36.6833 35.5516L41.0687 29.9703C41.7792 29.0661 43.0875 28.9057 43.9937 29.6203C44.9 30.3266 45.0583 31.637 44.3458 32.5411Z" fill="#9D6CFF"/>
</g>
<defs>
<clipPath id="clip0_239_2037">
<rect width="50" height="50" fill="white"/>
</clipPath>
</defs>
</svg>
