<svg width="50" height="50" viewBox="0 0 50 50" fill="none" xmlns="http://www.w3.org/2000/svg">
<path d="M35.6573 26.0518L25.4034 23.1797C25.1402 23.1068 24.8599 23.1068 24.5966 23.1797L14.3427 26.0518C13.7161 26.2285 13.2812 26.7923 13.2812 27.4331V34.4023C13.2812 41.201 17.9361 47.2493 24.5994 49.1103C24.7311 49.1468 24.8655 49.165 25 49.165C25.1345 49.165 25.2689 49.1468 25.4006 49.1103C32.0639 47.2493 36.7188 41.201 36.7188 34.4023V27.4331C36.7188 26.7923 36.2839 26.2285 35.6573 26.0518ZM30.4302 34.384L24.5708 40.1281C24.2847 40.4086 23.9099 40.5488 23.5352 40.5488C23.1604 40.5488 22.7855 40.4086 22.4995 40.1281L19.5698 37.256C18.9977 36.6951 18.9977 35.7863 19.5698 35.2254C20.142 34.6645 21.069 34.6645 21.6412 35.2254L23.5352 37.0822L28.3589 32.3533C28.9311 31.7924 29.8581 31.7924 30.4303 32.3533C31.0024 32.9142 31.0024 33.8231 30.4302 34.384Z" fill="#9D6CFF"/>
<path d="M39.6484 8.76459C38.9246 8.76459 38.2122 8.83754 37.5112 8.98478C35.7432 3.7834 30.7135 0.148438 25 0.148438C19.2865 0.148438 14.2568 3.7834 12.4888 8.98478C11.7878 8.83754 11.0754 8.76459 10.3516 8.76459C4.69814 8.76459 0 13.2746 0 18.8168C0 24.359 4.69814 28.869 10.3516 28.869V27.4329C10.3516 25.5229 11.6591 23.8205 13.533 23.2917L23.7927 20.4182C24.1903 20.3075 24.5938 20.2528 25 20.2528C25.4062 20.2528 25.8097 20.3075 26.1987 20.4155L36.4612 23.2903C38.3409 23.8205 39.6484 25.5229 39.6484 27.4329V28.869C45.3019 28.869 50 24.359 50 18.8168C50 13.2746 45.3019 8.76459 39.6484 8.76459Z" fill="#9D6CFF"/>
</svg>
