<svg width="50" height="50" viewBox="0 0 50 50" fill="none" xmlns="http://www.w3.org/2000/svg">
<g clip-path="url(#clip0_239_2028)">
<path d="M20.5874 9.75621C20.7826 9.56097 20.7826 9.24449 20.5875 9.04923L17.347 5.80718C17.032 5.49208 16.4934 5.71513 16.4934 6.16064V7.94893C12.149 8.09678 8.08818 9.85518 5.00293 12.9404C2.12371 15.8197 0.398924 19.5482 0.0612415 23.5641C-0.0065461 24.3703 0.655833 25.0275 1.46484 25.0275C2.27385 25.0275 2.92171 24.3696 3.00467 23.5648C3.71891 16.6362 9.4499 11.1742 16.4934 10.8807V12.644C16.4934 13.0894 17.032 13.3125 17.347 12.9975L20.5874 9.75621Z" fill="#9D6CFF"/>
<path d="M48.5346 25.0234C47.7256 25.0234 47.0777 25.6813 46.9947 26.4861C46.2805 33.4146 40.5495 38.8766 33.5061 39.1701V37.4068C33.5061 36.9613 32.9674 36.7383 32.6525 37.0533L29.412 40.2946C29.2168 40.4898 29.2168 40.8063 29.4119 41.0016L32.6524 44.2436C32.9674 44.5587 33.5061 44.3356 33.5061 43.8901V42.1019C37.8504 41.954 41.9112 40.1956 44.9965 37.1104C47.8758 34.2312 49.6005 30.5027 49.9382 26.4868C50.006 25.6806 49.3436 25.0234 48.5346 25.0234Z" fill="#9D6CFF"/>
<path d="M13.4443 30.3479C13.3363 30.3658 13.2262 30.3658 13.1182 30.3479L1.16307 28.3719C0.553943 28.2712 0 28.7411 0 29.3585V46.9024C0 47.3918 0.354129 47.8092 0.836926 47.889L13.1182 49.9189C13.2262 49.9368 13.3363 49.9368 13.4443 49.9189L25.7256 47.889C26.2084 47.8092 26.5625 47.3918 26.5625 46.9024V29.3585C26.5625 28.7411 26.0086 28.2712 25.3994 28.3719L13.4443 30.3479ZM14.7461 45.8861C14.7461 46.3754 14.392 46.7929 13.9091 46.8727L13.4443 46.9495C13.3363 46.9674 13.2262 46.9674 13.1182 46.9495L12.6534 46.8727C12.1705 46.7929 11.8164 46.3754 11.8164 45.8861V34.2811C11.8164 33.6637 12.3703 33.1938 12.9795 33.2945L13.1182 33.3174C13.2262 33.3352 13.3363 33.3352 13.4443 33.3174L13.583 33.2945C14.1922 33.1938 14.7461 33.6637 14.7461 34.2811V45.8861Z" fill="#9D6CFF"/>
<path d="M36.8818 2.22295C36.7738 2.2408 36.6637 2.2408 36.5557 2.22295L24.6006 0.246928C23.9914 0.146247 23.4375 0.616146 23.4375 1.23354V18.7774C23.4375 19.2667 23.7916 19.6842 24.2744 19.764L36.5557 21.7939C36.6637 21.8118 36.7738 21.8118 36.8818 21.7939L49.1631 19.764C49.6459 19.6842 50 19.2667 50 18.7774V1.23354C50 0.616146 49.4461 0.146247 48.8369 0.246928L36.8818 2.22295ZM38.1836 17.7611C38.1836 18.2504 37.8295 18.6679 37.3466 18.7477L36.8818 18.8245C36.7738 18.8424 36.6637 18.8424 36.5557 18.8245L36.0909 18.7477C35.608 18.6679 35.2539 18.2504 35.2539 17.7611V6.15608C35.2539 5.53869 35.8078 5.06879 36.417 5.16946L36.5557 5.19239C36.6637 5.21023 36.7738 5.21023 36.8818 5.19239L37.0205 5.16946C37.6297 5.06879 38.1836 5.53869 38.1836 6.15608V17.7611Z" fill="#9D6CFF"/>
</g>
<defs>
<clipPath id="clip0_239_2028">
<rect width="50" height="50" fill="white"/>
</clipPath>
</defs>
</svg>
