<svg width="21" height="21" viewBox="0 0 21 21" fill="none" xmlns="http://www.w3.org/2000/svg">
<path d="M11.0282 16.1249C11.1848 16.2816 11.2727 16.4941 11.2727 16.7156C11.2727 16.9371 11.1848 17.1496 11.0282 17.3062L9.98998 18.3507C8.89203 19.448 7.40316 20.0642 5.85091 20.0637C4.29867 20.0632 2.81019 19.4461 1.71293 18.3481C0.615669 17.2502 -0.000489396 15.7613 2.91659e-07 14.2091C0.000489979 12.6568 0.617588 11.1683 1.71554 10.0711L4.23485 7.55176C5.28945 6.49631 6.70754 5.88378 8.19892 5.83951C9.6903 5.79524 11.1422 6.32258 12.2576 7.31362C12.3399 7.38659 12.407 7.47505 12.4551 7.57396C12.5032 7.67288 12.5314 7.78029 12.538 7.89009C12.5446 7.99988 12.5295 8.1099 12.4935 8.21385C12.4576 8.31781 12.4016 8.41368 12.3286 8.49598C12.2556 8.57828 12.1672 8.6454 12.0682 8.69351C11.9693 8.74162 11.8619 8.76977 11.7521 8.77637C11.6423 8.78296 11.5323 8.76787 11.4284 8.73195C11.3244 8.69602 11.2285 8.63997 11.1462 8.567C10.3496 7.85958 9.31284 7.4832 8.24792 7.51485C7.18301 7.54649 6.17041 7.98377 5.41721 8.73726L2.8979 11.2534C2.11422 12.0371 1.67396 13.1 1.67396 14.2083C1.67396 15.3166 2.11422 16.3795 2.8979 17.1632C3.68158 17.9468 4.74447 18.3871 5.85276 18.3871C6.96105 18.3871 8.02394 17.9468 8.80762 17.1632L9.84584 16.1249C9.92345 16.0472 10.0156 15.9856 10.117 15.9436C10.2185 15.9015 10.3272 15.8799 10.437 15.8799C10.5468 15.8799 10.6556 15.9015 10.757 15.9436C10.8584 15.9856 10.9506 16.0472 11.0282 16.1249ZM18.348 1.71097C17.2499 0.615323 15.762 0 14.2108 0C12.6595 0 11.1717 0.615323 10.0735 1.71097L9.03532 2.75024C8.87867 2.90703 8.79072 3.11963 8.79081 3.34127C8.79091 3.56291 8.87905 3.77543 9.03584 3.93208C9.19263 4.08873 9.40523 4.17668 9.62687 4.17659C9.84851 4.17649 10.061 4.08835 10.2177 3.93156L11.2559 2.89334C12.0396 2.10966 13.1025 1.66939 14.2108 1.66939C15.319 1.66939 16.3819 2.10966 17.1656 2.89334C17.9493 3.67701 18.3896 4.73991 18.3896 5.8482C18.3896 6.95648 17.9493 8.01938 17.1656 8.80306L14.6463 11.3245C13.8927 12.0775 12.8799 12.5142 11.815 12.5453C10.7501 12.5763 9.71351 12.1994 8.91729 11.4916C8.75108 11.3442 8.53314 11.2689 8.3114 11.2822C8.08967 11.2955 7.8823 11.3964 7.73493 11.5626C7.58756 11.7288 7.51225 11.9468 7.52557 12.1685C7.53889 12.3902 7.63975 12.5976 7.80596 12.745C8.92105 13.7363 10.3728 14.264 11.8642 14.2201C13.3556 14.1762 14.7738 13.5641 15.8287 12.5089L18.348 9.9896C19.4443 8.8914 20.06 7.40307 20.06 5.85133C20.06 4.29959 19.4443 2.81126 18.348 1.71306V1.71097Z" fill="white"/>
</svg>
