<svg width="22" height="19" viewBox="0 0 22 19" fill="none" xmlns="http://www.w3.org/2000/svg">
<path d="M19.3339 11.0342L12.6948 17.6744C12.2547 18.1144 11.6578 18.3616 11.0354 18.3616C10.413 18.3616 9.81608 18.1144 9.37592 17.6744L2.7369 11.0354C2.18809 10.4914 1.75214 9.84429 1.45408 9.13133C1.15601 8.41838 1.00171 7.65357 1.00001 6.88082C0.998322 6.10806 1.14928 5.34258 1.44422 4.62833C1.73916 3.91407 2.17227 3.26511 2.71869 2.71869C3.26511 2.17227 3.91407 1.73916 4.62833 1.44422C5.34258 1.14928 6.10806 0.998322 6.88081 1.00001C7.65357 1.00171 8.41838 1.15601 9.13133 1.45408C9.84429 1.75214 10.4914 2.18809 11.0354 2.7369C12.1404 1.65939 13.6254 1.06061 15.1688 1.07029C16.7122 1.07996 18.1896 1.69729 19.281 2.78856C20.3724 3.87984 20.99 5.35717 20.9999 6.90054C21.0098 8.44391 20.4112 9.92903 19.3339 11.0342Z" stroke="white" stroke-linecap="round" stroke-linejoin="round"/>
</svg>
