<svg width="8" height="11" viewBox="0 0 8 11" fill="none" xmlns="http://www.w3.org/2000/svg">
<path d="M0 10.3333V1.07667C0 0.77 0.102889 0.514 0.308667 0.308666C0.514 0.102889 0.77 0 1.07667 0H6.92333C7.23 0 7.486 0.102889 7.69133 0.308666C7.89711 0.514 8 0.77 8 1.07667V10.3333L4 8.61533L0 10.3333ZM0.666667 9.3L4 7.86667L7.33333 9.3V1.07667C7.33333 0.974444 7.29067 0.880444 7.20533 0.794666C7.11956 0.709333 7.02556 0.666667 6.92333 0.666667H1.07667C0.974444 0.666667 0.880444 0.709333 0.794667 0.794666C0.709333 0.880444 0.666667 0.974444 0.666667 1.07667V9.3Z" fill="white"/>
</svg>
