<svg width="21" height="20" viewBox="0 0 21 20" fill="none" xmlns="http://www.w3.org/2000/svg">
<path d="M18.5383 9.99884C18.5382 8.21573 17.9538 6.48378 16.878 5.07804C15.8023 3.67229 14.2968 2.67333 12.6007 2.23978C10.9045 1.80623 9.11498 1.96295 7.51617 2.68505C5.91736 3.40715 4.60096 4.65323 3.77599 6.22543C2.95103 7.79764 2.6648 9.60582 2.96275 11.3629C3.2607 13.1199 4.12576 14.7251 5.42055 15.9235C6.71535 17.1219 8.36566 17.8448 10.1094 17.9775C11.8532 18.1102 13.5904 17.645 15.0453 16.6558L16.1338 18.3198C14.3153 19.5564 12.1437 20.1381 9.96399 19.9723C7.78427 19.8066 5.72132 18.903 4.10274 17.405C2.48416 15.9071 1.40274 13.9007 1.03021 11.7044C0.657679 9.50804 1.01539 7.24777 2.04654 5.28247C3.07769 3.31716 4.72316 1.75949 6.72167 0.856796C8.72017 -0.0458946 10.9571 -0.241851 13.0773 0.300044C15.1975 0.84194 17.0794 2.09062 18.4242 3.8478C19.7689 5.60498 20.4994 7.76992 20.4996 9.99884V11.4988C20.501 12.2487 20.2661 12.9792 19.8297 13.5827C19.3932 14.1862 18.7782 14.6308 18.0752 14.851C17.3723 15.0712 16.6186 15.0553 15.9252 14.8058C15.2317 14.5562 14.6352 14.0862 14.2235 13.4648C13.5687 14.1585 12.7313 14.6446 11.8121 14.8648C10.8928 15.0849 9.93084 15.0297 9.04163 14.7058C8.15242 14.3819 7.37384 13.8031 6.79943 13.0388C6.22503 12.2746 5.87923 11.3575 5.80359 10.3978C5.72795 9.43797 5.92569 8.47633 6.37304 7.62837C6.82039 6.78042 7.49833 6.08222 8.3254 5.61766C9.15247 5.1531 10.0935 4.94194 11.0354 5.00956C11.9773 5.07718 12.88 5.4207 13.6351 5.99884H15.5964V11.4988C15.5964 11.8967 15.7514 12.2782 16.0272 12.5595C16.3031 12.8408 16.6773 12.9988 17.0674 12.9988C17.4575 12.9988 17.8316 12.8408 18.1075 12.5595C18.3834 12.2782 18.5383 11.8967 18.5383 11.4988V9.99884ZM10.6932 6.99884C10.1113 6.99884 9.54253 7.17479 9.05873 7.50444C8.57493 7.83408 8.19786 8.30262 7.97519 8.85079C7.75252 9.39897 7.69426 10.0022 7.80778 10.5841C7.92129 11.1661 8.20148 11.7006 8.61292 12.1202C9.02436 12.5397 9.54856 12.8254 10.1192 12.9412C10.6899 13.057 11.2814 12.9975 11.819 12.7705C12.3566 12.5434 12.8161 12.1589 13.1393 11.6656C13.4626 11.1722 13.6351 10.5922 13.6351 9.99884C13.6351 9.20319 13.3252 8.44013 12.7734 7.87752C12.2217 7.31491 11.4734 6.99884 10.6932 6.99884Z" fill="#C4C4C4"/>
</svg>
