<svg width="20" height="24" viewBox="0 0 20 24" fill="none" xmlns="http://www.w3.org/2000/svg">
<path d="M16.3628 22.35C15.1378 23.5375 13.8003 23.35 12.5128 22.7875C11.1503 22.2125 9.90025 22.1875 8.46275 22.7875C6.66275 23.5625 5.71275 23.3375 4.63775 22.35C-1.46225 16.0625 -0.562246 6.4875 6.36275 6.1375C8.05025 6.225 9.22525 7.0625 10.2128 7.1375C11.6878 6.8375 13.1003 5.975 14.6753 6.0875C16.5628 6.2375 17.9878 6.9875 18.9253 8.3375C15.0253 10.675 15.9503 15.8125 19.5253 17.25C18.8128 19.125 17.8878 20.9875 16.3503 22.3625L16.3628 22.35ZM10.0878 6.0625C9.90025 3.275 12.1628 0.975 14.7628 0.75C15.1253 3.975 11.8378 6.375 10.0878 6.0625Z" fill="black"/>
</svg>
