<svg width="20" height="20" viewBox="0 0 20 20" fill="none" xmlns="http://www.w3.org/2000/svg">
<path d="M10.2758 4.33668C10.4516 4.16111 10.6899 4.0625 10.9383 4.0625C11.1868 4.0625 11.425 4.16111 11.6008 4.33668L16.9133 9.64917C17.0889 9.82496 17.1875 10.0632 17.1875 10.3117C17.1875 10.5601 17.0889 10.7984 16.9133 10.9742L11.6008 16.2867C11.423 16.4522 11.1879 16.5423 10.945 16.5381C10.7021 16.5339 10.4703 16.4357 10.2983 16.2642C10.1268 16.0922 10.0286 15.8604 10.0244 15.6175C10.0202 15.3746 10.1103 15.1395 10.2758 14.9617L13.9883 11.2492L4.68832 11.2492C4.43968 11.2492 4.20123 11.1504 4.02541 10.9746C3.8496 10.7988 3.75082 10.5603 3.75082 10.3117C3.75082 10.063 3.8496 9.82458 4.02541 9.64876C4.20123 9.47295 4.43968 9.37418 4.68832 9.37418L13.9883 9.37418L10.2758 5.66168C10.1003 5.48589 10.0016 5.24761 10.0016 4.99918C10.0016 4.75074 10.1003 4.51246 10.2758 4.33668Z" fill="white"/>
</svg>
