<svg width="13" height="13" viewBox="0 0 13 13" fill="none" xmlns="http://www.w3.org/2000/svg">
<path d="M6.26669 12.2188C5.10297 12.2188 3.96538 11.8669 2.99778 11.2076C2.03019 10.5483 1.27603 9.61121 0.830698 8.51485C0.385362 7.4185 0.268842 6.2121 0.495872 5.04821C0.722903 3.88433 1.28329 2.81523 2.10616 1.97611C2.92904 1.137 3.97744 0.565552 5.1188 0.334041C6.26016 0.10253 7.44321 0.22135 8.51835 0.675476C9.59348 1.1296 10.5124 1.89864 11.1589 2.88533C11.8055 3.87203 12.1506 5.03206 12.1506 6.21875C12.1506 7.81005 11.5307 9.33617 10.4272 10.4614C9.32377 11.5866 7.82719 12.2188 6.26669 12.2188ZM6.26669 11.0188C7.19766 11.0188 8.10773 10.7372 8.88181 10.2098C9.65589 9.68238 10.2592 8.93272 10.6155 8.05563C10.9717 7.17855 11.065 6.21343 10.8833 5.28232C10.7017 4.35121 10.2534 3.49593 9.59511 2.82464C8.93681 2.15335 8.09808 1.69619 7.185 1.51098C6.27191 1.32577 5.32547 1.42083 4.46536 1.78413C3.60525 2.14743 2.8701 2.76266 2.35288 3.55202C1.83566 4.34137 1.55959 5.2694 1.55959 6.21875C1.55959 7.49179 2.05551 8.71269 2.93827 9.61287C3.82102 10.513 5.01829 11.0188 6.26669 11.0188ZM5.6783 8.61875L3.18354 6.07275L4.0112 5.22475L5.6783 6.91875L9.01249 3.52775L9.84506 4.37575L5.6783 8.61875Z" fill="#C4C4C4"/>
</svg>
