<svg width="23" height="14" viewBox="0 0 23 14" fill="none" xmlns="http://www.w3.org/2000/svg">
<path d="M1.94004 0.853058C1.83027 0.737085 1.70113 0.646421 1.56002 0.586242C1.4189 0.526061 1.26856 0.497544 1.11759 0.502318C0.966615 0.507093 0.81796 0.545066 0.680113 0.614068C0.542265 0.683071 0.417924 0.781752 0.314189 0.904476C0.210454 1.0272 0.129356 1.17157 0.0755265 1.32933C0.0216969 1.4871 -0.00381092 1.65517 0.000459932 1.82395C0.00473078 1.99274 0.0386964 2.15893 0.100418 2.31304C0.162139 2.46715 0.250407 2.60616 0.360182 2.72213L10.7086 13.6486C10.9221 13.8743 11.2047 14 11.4985 14C11.7923 14 12.075 13.8743 12.2885 13.6486L22.638 2.72213C22.7502 2.60692 22.8408 2.46795 22.9045 2.31327C22.9683 2.15859 23.0039 1.9913 23.0093 1.82111C23.0147 1.65092 22.9898 1.48123 22.936 1.32189C22.8823 1.16254 22.8008 1.01673 22.6962 0.892911C22.5916 0.769094 22.4661 0.669743 22.3268 0.600628C22.1876 0.531512 22.0375 0.494013 21.8852 0.490305C21.7329 0.486597 21.5815 0.516755 21.4397 0.579028C21.2979 0.641301 21.1686 0.734448 21.0593 0.853058L11.4985 10.9466L1.94004 0.853058Z" fill="white"/>
</svg>
