<svg width="9" height="7" viewBox="0 0 9 7" fill="none" xmlns="http://www.w3.org/2000/svg">
<path d="M8.07474 0.636187L0.424527 0.636187C0.347073 0.63643 0.271152 0.657793 0.204934 0.697975C0.138717 0.738157 0.084713 0.795637 0.0487337 0.864228C0.0127544 0.93282 -0.00383663 1.00993 0.000746727 1.08725C0.00533009 1.16457 0.0309124 1.23917 0.0747423 1.30303L3.89985 6.82819C4.05838 7.05727 4.44004 7.05727 4.599 6.82819L8.4241 1.30303C8.46838 1.2393 8.49434 1.16466 8.49918 1.08721C8.50401 1.00976 8.48752 0.932473 8.45151 0.863736C8.4155 0.794999 8.36134 0.737444 8.29492 0.697328C8.22849 0.657211 8.15234 0.636065 8.07474 0.636187Z" fill="#8F98A1"/>
</svg>
