<svg width="21" height="21" viewBox="0 0 21 21" fill="none" xmlns="http://www.w3.org/2000/svg">
<path d="M10.1348 0.898438C7.4826 0.898438 4.93906 1.95201 3.0637 3.82737C1.18833 5.70273 0.134766 8.24627 0.134766 10.8984C0.134766 13.5506 1.18833 16.0941 3.0637 17.9695C4.93906 19.8449 7.4826 20.8984 10.1348 20.8984C12.7869 20.8984 15.3305 19.8449 17.2058 17.9695C19.0812 16.0941 20.1348 13.5506 20.1348 10.8984C20.1348 8.24627 19.0812 5.70273 17.2058 3.82737C15.3305 1.95201 12.7869 0.898438 10.1348 0.898438Z" fill="#1565C0"/>
<path d="M11.4858 13.5525H14.0737L14.48 10.9236H11.4853V9.48676C11.4853 8.39465 11.8421 7.42623 12.8637 7.42623H14.5053V5.13202C14.2168 5.09308 13.6068 5.00781 12.4542 5.00781C10.0474 5.00781 8.63632 6.27887 8.63632 9.17465V10.9236H6.16211V13.5525H8.63632V20.7783C9.12632 20.852 9.62264 20.902 10.1321 20.902C10.5926 20.902 11.0421 20.8599 11.4858 20.7999V13.5525Z" fill="white"/>
</svg>
