<svg width="23" height="23" viewBox="0 0 23 23" fill="none" xmlns="http://www.w3.org/2000/svg">
<g clip-path="url(#clip0_143_2123)">
<path d="M22.656 14.281C21.1195 20.445 14.8743 24.192 8.71914 22.6554C2.55496 21.1189 -1.19206 14.8741 0.344539 8.71897C1.88105 2.55497 8.1171 -1.19206 14.2813 0.344539C20.4365 1.87206 24.1926 8.11692 22.656 14.281Z" fill="url(#paint0_linear_143_2123)"/>
<path d="M16.975 10.0676C17.1996 8.54024 16.0406 7.71367 14.4414 7.16563L14.9625 5.09023L13.7047 4.77578L13.2016 6.79727C12.8691 6.71641 12.5277 6.63555 12.1863 6.56367L12.6895 4.5332L11.4316 4.21875L10.9195 6.28516C10.641 6.22227 10.3715 6.15938 10.1109 6.09648V6.0875L8.36797 5.65625L8.03555 7.00391C8.03555 7.00391 8.96992 7.21953 8.95195 7.22852C9.46406 7.3543 9.55391 7.6957 9.53594 7.96524L8.94297 10.3281C8.97891 10.3371 9.02383 10.3461 9.07773 10.373C9.03281 10.3641 8.98789 10.3551 8.94297 10.3371L8.11641 13.6434C8.05352 13.7961 7.8918 14.0297 7.54141 13.9398C7.55039 13.9578 6.625 13.7152 6.625 13.7152L5.99609 15.1617L7.64023 15.575C7.9457 15.6559 8.24219 15.7277 8.53867 15.8086L8.01758 17.902L9.27539 18.2164L9.79648 16.141C10.1379 16.2309 10.4793 16.3207 10.8027 16.4016L10.2906 18.468L11.5484 18.7824L12.0695 16.6891C14.2258 17.0934 15.843 16.9316 16.5168 14.982C17.0648 13.4188 16.4898 12.5113 15.3578 11.9184C16.1934 11.7297 16.8133 11.1816 16.975 10.0676ZM14.091 14.1105C13.7047 15.6738 11.0633 14.8293 10.2098 14.6137L10.9016 11.8375C11.7551 12.0531 14.5043 12.4754 14.091 14.1105ZM14.4863 10.0406C14.127 11.4691 11.9348 10.7414 11.225 10.5617L11.8539 8.04609C12.5637 8.22578 14.8547 8.5582 14.4863 10.0406Z" fill="white"/>
</g>
<defs>
<linearGradient id="paint0_linear_143_2123" x1="1149.38" y1="-0.552" x2="1149.38" y2="2299.77" gradientUnits="userSpaceOnUse">
<stop stop-color="#F9AA4B"/>
<stop offset="1" stop-color="#F7931A"/>
</linearGradient>
<clipPath id="clip0_143_2123">
<rect width="23" height="23" fill="white"/>
</clipPath>
</defs>
</svg>
