<svg width="167" height="37" viewBox="0 0 167 37" fill="none" xmlns="http://www.w3.org/2000/svg">
<path d="M23.4056 35.4387H30.6099L18.2544 2.59375H12.0097L0 35.4387H7.0295L9.12719 29.2446H21.267L23.4056 35.4387ZM15.1971 11.2735L19.214 23.0504H11.1802L15.1971 11.2735Z" fill="white"/>
<path d="M42.4025 36.1891C48.3869 36.1891 52.3182 32.8123 52.3182 27.6492C52.3182 21.455 47.3826 20.6118 43.5406 19.8606C41.0933 19.393 39.0849 18.9694 39.0849 17.279C39.0849 15.8244 40.2639 14.8853 42.2277 14.8853C44.4555 14.8853 45.7647 15.8723 45.8094 17.8904H51.8793C51.8347 12.8232 48.0819 9.39844 42.4025 9.39844C36.7268 9.39844 32.9294 12.7273 32.9294 17.5148C32.9294 23.4731 37.731 24.5521 41.4875 25.2555C43.9758 25.6791 46.0288 26.1946 46.0288 27.9289C46.0288 29.6193 44.4109 30.5105 42.6666 30.5105C40.3941 30.5105 38.7799 29.3836 38.7352 27.1337H32.5352C32.5352 32.5286 36.5074 36.1891 42.4025 36.1891Z" fill="white"/>
<path d="M56.9883 35.4082H63.3632V0.96875H56.9883V35.4082Z" fill="white"/>
<path d="M83.9204 36.1824C91.4743 36.1824 97.414 30.7395 98.8125 22.6232H92.1289C91.0391 26.7513 87.9372 29.3768 83.9204 29.3768C78.7245 29.3768 74.8378 24.969 74.8378 19.0546C74.8378 13.1442 78.7245 8.68838 83.9204 8.68838C87.7624 8.68838 90.8197 11.1261 92.088 14.9744H98.6823C97.2838 7.1858 91.3441 1.88281 83.9204 1.88281C74.9233 1.88281 68.1133 9.29581 68.1133 19.0546C68.1133 28.7694 74.9233 36.1824 83.9204 36.1824Z" fill="url(#paint0_linear_137_1784)"/>
<path d="M114.32 36.1891C121.61 36.1891 127.07 30.4186 127.07 22.7698C127.07 15.121 121.61 9.39844 114.32 9.39844C107.026 9.39844 101.566 15.121 101.566 22.7698C101.566 30.4186 107.026 36.1891 114.32 36.1891ZM114.32 29.7152C110.649 29.7152 108.031 26.8979 108.031 22.7698C108.031 18.6897 110.649 15.8244 114.32 15.8244C117.987 15.8244 120.606 18.6897 120.606 22.7698C120.606 26.8979 117.987 29.7152 114.32 29.7152Z" fill="url(#paint1_linear_137_1784)"/>
<path d="M131.66 6.70901H137.99V0.375H131.66V6.70901ZM131.66 35.4219H138.035V10.0858H131.66V35.4219Z" fill="url(#paint2_linear_137_1784)"/>
<path d="M157.549 9.53906C154.361 9.53906 151.524 10.9937 149.735 13.2476L148.511 10.1025H144.145V35.4386H150.519V22.1591C150.519 18.079 152.528 15.5454 155.805 15.5454C158.553 15.5454 159.907 17.3757 159.907 21.224V35.4386H166.282V20.0971C166.282 13.6672 162.92 9.53906 157.549 9.53906Z" fill="url(#paint3_linear_137_1784)"/>
<defs>
<linearGradient id="paint0_linear_137_1784" x1="83.4629" y1="1.88281" x2="83.4629" y2="36.1824" gradientUnits="userSpaceOnUse">
<stop stop-color="#9D6CFF"/>
<stop offset="1" stop-color="#FE487C"/>
</linearGradient>
<linearGradient id="paint1_linear_137_1784" x1="114.318" y1="9.39844" x2="114.318" y2="36.1891" gradientUnits="userSpaceOnUse">
<stop stop-color="#9D6CFF"/>
<stop offset="1" stop-color="#FE487C"/>
</linearGradient>
<linearGradient id="paint2_linear_137_1784" x1="134.848" y1="0.375" x2="134.848" y2="35.4219" gradientUnits="userSpaceOnUse">
<stop stop-color="#9D6CFF"/>
<stop offset="1" stop-color="#FE487C"/>
</linearGradient>
<linearGradient id="paint3_linear_137_1784" x1="155.213" y1="9.53906" x2="155.213" y2="35.4386" gradientUnits="userSpaceOnUse">
<stop stop-color="#9D6CFF"/>
<stop offset="1" stop-color="#FE487C"/>
</linearGradient>
</defs>
</svg>
