<svg width="40" height="40" viewBox="0 0 40 40" fill="none" xmlns="http://www.w3.org/2000/svg">
<circle cx="20" cy="20" r="20" fill="#2D2C31"/>
<path d="M16.8875 15.4753V24.0255C16.8878 24.1121 16.9117 24.1969 16.9566 24.271C17.0015 24.345 17.0657 24.4053 17.1424 24.4455C17.219 24.4857 17.3052 24.5043 17.3916 24.4992C17.478 24.494 17.5614 24.4655 17.6328 24.4165L23.808 20.1413C24.064 19.9642 24.064 19.5376 23.808 19.3599L17.6328 15.0848C17.5616 15.0353 17.4781 15.0063 17.3916 15.0009C17.305 14.9955 17.2186 15.0139 17.1418 15.0542C17.065 15.0944 17.0007 15.155 16.9558 15.2292C16.911 15.3035 16.8874 15.3886 16.8875 15.4753Z" fill="#9D6CFF"/>
</svg>
