<svg width="163" height="162" viewBox="0 0 163 162" fill="none" xmlns="http://www.w3.org/2000/svg">
<path d="M45.0508 45H54.0508V54H45.0508V45ZM45.0508 108H54.0508V117H45.0508V108ZM108.051 45H117.051V54H108.051V45Z" fill="black"/>
<path d="M27.0508 27H135.051V135H27.0508V27Z" fill="white" stroke="black" stroke-width="2" stroke-linejoin="round"/>
<path d="M45.0508 45H54.0508V54H45.0508V45ZM45.0508 108H54.0508V117H45.0508V108ZM108.051 45H117.051V54H108.051V45Z" fill="#3F3F3F" stroke="black" stroke-width="2" stroke-linejoin="round"/>
<path d="M40.5508 92.25C41.7934 92.25 42.8008 91.2426 42.8008 90C42.8008 88.7574 41.7934 87.75 40.5508 87.75C39.3081 87.75 38.3008 88.7574 38.3008 90C38.3008 91.2426 39.3081 92.25 40.5508 92.25Z" fill="black"/>
<path d="M36.0508 87.75C37.2934 87.75 38.3008 86.7426 38.3008 85.5C38.3008 84.2574 37.2934 83.25 36.0508 83.25C34.8081 83.25 33.8008 84.2574 33.8008 85.5C33.8008 86.7426 34.8081 87.75 36.0508 87.75Z" fill="black"/>
<path d="M45.0508 87.75C46.2934 87.75 47.3008 86.7426 47.3008 85.5C47.3008 84.2574 46.2934 83.25 45.0508 83.25C43.8081 83.25 42.8008 84.2574 42.8008 85.5C42.8008 86.7426 43.8081 87.75 45.0508 87.75Z" fill="black"/>
<path d="M76.5508 105.75C77.7934 105.75 78.8008 104.743 78.8008 103.5C78.8008 102.257 77.7934 101.25 76.5508 101.25C75.3081 101.25 74.3008 102.257 74.3008 103.5C74.3008 104.743 75.3081 105.75 76.5508 105.75Z" fill="black"/>
<path d="M90.0508 87.75C91.2934 87.75 92.3008 86.7426 92.3008 85.5C92.3008 84.2574 91.2934 83.25 90.0508 83.25C88.8081 83.25 87.8008 84.2574 87.8008 85.5C87.8008 86.7426 88.8081 87.75 90.0508 87.75Z" fill="black"/>
<path d="M90.0508 65.25C91.2934 65.25 92.3008 64.2426 92.3008 63C92.3008 61.7574 91.2934 60.75 90.0508 60.75C88.8081 60.75 87.8008 61.7574 87.8008 63C87.8008 64.2426 88.8081 65.25 90.0508 65.25Z" fill="black"/>
<path d="M72.0508 38.25C73.2934 38.25 74.3008 37.2426 74.3008 36C74.3008 34.7574 73.2934 33.75 72.0508 33.75C70.8081 33.75 69.8008 34.7574 69.8008 36C69.8008 37.2426 70.8081 38.25 72.0508 38.25Z" fill="black"/>
<path d="M103.551 74.25C104.793 74.25 105.801 73.2426 105.801 72C105.801 70.7574 104.793 69.75 103.551 69.75C102.308 69.75 101.301 70.7574 101.301 72C101.301 73.2426 102.308 74.25 103.551 74.25Z" fill="black"/>
<path d="M117.051 74.25C118.293 74.25 119.301 73.2426 119.301 72C119.301 70.7574 118.293 69.75 117.051 69.75C115.808 69.75 114.801 70.7574 114.801 72C114.801 73.2426 115.808 74.25 117.051 74.25Z" fill="black"/>
<path d="M117.051 101.25C118.293 101.25 119.301 100.243 119.301 99C119.301 97.7574 118.293 96.75 117.051 96.75C115.808 96.75 114.801 97.7574 114.801 99C114.801 100.243 115.808 101.25 117.051 101.25Z" fill="black"/>
<path d="M121.551 110.25C122.793 110.25 123.801 109.243 123.801 108C123.801 106.757 122.793 105.75 121.551 105.75C120.308 105.75 119.301 106.757 119.301 108C119.301 109.243 120.308 110.25 121.551 110.25Z" fill="black"/>
<path d="M126.051 128.25C127.293 128.25 128.301 127.243 128.301 126C128.301 124.757 127.293 123.75 126.051 123.75C124.808 123.75 123.801 124.757 123.801 126C123.801 127.243 124.808 128.25 126.051 128.25Z" fill="black"/>
<path d="M72.0508 128.25C73.2934 128.25 74.3008 127.243 74.3008 126C74.3008 124.757 73.2934 123.75 72.0508 123.75C70.8081 123.75 69.8008 124.757 69.8008 126C69.8008 127.243 70.8081 128.25 72.0508 128.25Z" fill="black"/>
<path d="M99.0508 128.25C100.293 128.25 101.301 127.243 101.301 126C101.301 124.757 100.293 123.75 99.0508 123.75C97.8081 123.75 96.8008 124.757 96.8008 126C96.8008 127.243 97.8081 128.25 99.0508 128.25Z" fill="black"/>
<path d="M103.551 123.75C104.793 123.75 105.801 122.743 105.801 121.5C105.801 120.257 104.793 119.25 103.551 119.25C102.308 119.25 101.301 120.257 101.301 121.5C101.301 122.743 102.308 123.75 103.551 123.75Z" fill="black"/>
<path d="M99.0508 119.25C100.293 119.25 101.301 118.243 101.301 117C101.301 115.757 100.293 114.75 99.0508 114.75C97.8081 114.75 96.8008 115.757 96.8008 117C96.8008 118.243 97.8081 119.25 99.0508 119.25Z" fill="black"/>
<path d="M36.0508 74.25C37.2934 74.25 38.3008 73.2426 38.3008 72C38.3008 70.7574 37.2934 69.75 36.0508 69.75C34.8081 69.75 33.8008 70.7574 33.8008 72C33.8008 73.2426 34.8081 74.25 36.0508 74.25Z" fill="black"/>
<path d="M90.0508 123.75C91.2934 123.75 92.3008 122.743 92.3008 121.5C92.3008 120.257 91.2934 119.25 90.0508 119.25C88.8081 119.25 87.8008 120.257 87.8008 121.5C87.8008 122.743 88.8081 123.75 90.0508 123.75Z" fill="black"/>
<path d="M27.0508 27H135.051V135H27.0508V27Z" stroke="black" stroke-width="2" stroke-linejoin="round"/>
<path d="M36.0508 36H63.0508V63H36.0508V36Z" stroke="black" stroke-width="2" stroke-linejoin="round"/>
<path d="M45.0508 45H54.0508V54H45.0508V45ZM36.0508 99H63.0508V126H36.0508V99Z" stroke="black" stroke-width="2" stroke-linejoin="round"/>
<path d="M45.0508 108H54.0508V117H45.0508V108ZM99.0508 36H126.051V63H99.0508V36Z" stroke="black" stroke-width="2" stroke-linejoin="round"/>
<path d="M108.051 45H117.051V54H108.051V45Z" stroke="black" stroke-width="2" stroke-linejoin="round"/>
<path d="M40.5508 81V76.5H58.5508M45.0508 76.5V72M54.0508 76.5V90M54.0508 85.5H58.5508M85.5508 72V67.5M126.051 76.5H121.551M94.5508 94.5H99.0508V90M63.0508 72H67.5508M76.5508 72H90.0508M85.5508 36V45H81.0508M81.0508 45V63M81.0508 45H72.0508M81.0508 58.5H72.0508V63" stroke="black" stroke-width="2" stroke-linecap="round" stroke-linejoin="round"/>
<path d="M81.0508 49.5H76.5508V40.5M63.0508 81H81.0508M67.5508 81V90H63.0508M76.5508 81V85.5M72.0508 99V94.5H85.5508V108H94.5508V103.5H112.551V126" stroke="black" stroke-width="2" stroke-linecap="round" stroke-linejoin="round"/>
<path d="M81.0508 90V99H94.5508M103.551 90H94.5508V108H99.0508M108.051 76.5V85.5H112.551M112.551 85.5V94.5H108.051V103.5M112.551 85.5V81H117.051M117.051 112.5H108.051V117M72.0508 117H76.5508V121.5H81.0508V112.5M126.051 72V85.5H121.551M99.0508 81V76.5M126.051 94.5V99M121.551 117H126.051M90.0508 49.5V54" stroke="black" stroke-width="2" stroke-linecap="round" stroke-linejoin="round"/>
</svg>
