<svg width="20" height="15" viewBox="0 0 20 15" fill="none" xmlns="http://www.w3.org/2000/svg">
<path d="M18.9994 0.00331306L0.999426 0.00331306C0.817184 0.00388432 0.63855 0.0541477 0.48275 0.148691C0.32695 0.243235 0.199884 0.378478 0.115231 0.539865C0.0305767 0.701253 -0.00845909 0.882673 0.00232315 1.0646C0.0131054 1.24652 0.0732994 1.42206 0.176426 1.57231L9.17643 14.5723C9.54943 15.1113 10.4474 15.1113 10.8214 14.5723L19.8214 1.57231C19.9256 1.42237 19.9867 1.24674 19.9981 1.06452C20.0094 0.882292 19.9706 0.700435 19.8859 0.538706C19.8012 0.376977 19.6738 0.241559 19.5175 0.147169C19.3612 0.0527792 19.182 0.00302505 18.9994 0.00331306Z" fill="#AF0101"/>
</svg>
