<svg width="21" height="21" viewBox="0 0 21 21" fill="none" xmlns="http://www.w3.org/2000/svg">
<path d="M20.38 18.6163L14.3013 12.5366C15.2809 11.1904 15.8079 9.56802 15.8063 7.90313C15.8063 3.54543 12.2608 0 7.90313 0C3.54543 0 0 3.54543 0 7.90313C0 12.2608 3.54543 15.8063 7.90313 15.8063C9.56802 15.8079 11.1904 15.2809 12.5366 14.3013L18.6163 20.38L20.38 18.6163ZM7.90313 13.3102C6.83357 13.3103 5.78801 12.9932 4.89867 12.3991C4.00932 11.8049 3.31615 10.9604 2.9068 9.97225C2.49745 8.98413 2.39032 7.89681 2.59896 6.8478C2.8076 5.79879 3.32263 4.83521 4.07892 4.07892C4.83521 3.32263 5.79879 2.8076 6.8478 2.59896C7.89681 2.39032 8.98413 2.49745 9.97225 2.9068C10.9604 3.31615 11.8049 4.00932 12.3991 4.89867C12.9932 5.78801 13.3103 6.83357 13.3102 7.90313C13.3085 9.33666 12.7383 10.711 11.7246 11.7246C10.711 12.7383 9.33666 13.3085 7.90313 13.3102Z" fill="black"/>
</svg>
