<svg width="16" height="16" viewBox="0 0 16 16" fill="none" xmlns="http://www.w3.org/2000/svg">
<g clip-path="url(#clip0_460_82)">
<path d="M7.99929 12.1759L5.18899 13.749C4.4444 14.1658 3.55345 13.5185 3.71972 12.6816L4.34729 9.5226L1.98243 7.33585C1.3559 6.75651 1.69618 5.7091 2.54357 5.6086L5.74196 5.22927L7.09125 2.30434C7.44868 1.52952 8.5499 1.52952 8.90733 2.30434L10.2566 5.22927L13.455 5.6086C14.3024 5.7091 14.6427 6.75651 14.0162 7.33585L11.6513 9.5226L12.2789 12.6816C12.4451 13.5185 11.5542 14.1658 10.8096 13.749L7.99929 12.1759ZM7.99929 10.6479L10.8306 12.2326L10.198 9.0506L12.58 6.84727L9.35796 6.46527L7.99929 3.51927L6.64062 6.46594L3.41863 6.84727L5.80062 9.0506L5.16796 12.2326L7.99929 10.6479Z" fill="#A4A8AB"/>
</g>
<defs>
<clipPath id="clip0_460_82">
<rect width="16" height="16" fill="white"/>
</clipPath>
</defs>
</svg>
