<svg width="15" height="17" viewBox="0 0 15 17" fill="none" xmlns="http://www.w3.org/2000/svg">
<path d="M7.5 16.1559C6.46778 16.1559 5.49556 15.9439 4.58333 15.5201C3.67111 15.0963 2.87667 14.5203 2.2 13.7921C1.52222 13.0656 0.986111 12.212 0.591667 11.2313C0.197222 10.2511 0 9.20653 0 8.09746C0 6.9854 0.197222 5.9399 0.591667 4.96095C0.986667 3.982 1.52278 3.12901 2.2 2.40196C2.87611 1.67492 3.67056 1.09949 4.58333 0.675676C5.49556 0.251267 6.46778 0.0390625 7.5 0.0390625C8.535 0.0390625 9.50806 0.250968 10.4192 0.67478C11.3303 1.09919 12.1242 1.67521 12.8008 2.40286C13.4775 3.1299 14.0131 3.9826 14.4075 4.96095C14.8025 5.9399 15 6.9854 15 8.09746C15 9.20653 14.8028 10.2511 14.4083 11.2313C14.0139 12.2114 13.4778 13.065 12.8 13.7921C12.1233 14.5197 11.3297 15.0957 10.4192 15.5201C9.50806 15.9439 8.535 16.1559 7.5 16.1559ZM7.5 15.2676C7.98889 14.5925 8.39222 13.9296 8.71 13.279C9.02722 12.6284 9.28528 11.9001 9.48417 11.0943H5.51583C5.73583 11.9455 5.99917 12.6964 6.30583 13.3471C6.6125 13.9977 7.01056 14.6379 7.5 15.2676ZM6.43917 15.1333C6.05028 14.6409 5.69528 14.032 5.37417 13.3068C5.05306 12.5821 4.81417 11.8443 4.6575 11.0934H1.46083C1.93861 12.2072 2.61556 13.1205 3.49167 13.8332C4.36833 14.546 5.35056 14.9793 6.43833 15.1333M8.56 15.1333C9.64778 14.9793 10.63 14.546 11.5067 13.8332C12.3833 13.1205 13.0603 12.2072 13.5375 11.0934H10.3425C10.1314 11.8557 9.86556 12.5994 9.545 13.3247C9.22389 14.0493 8.89556 14.6522 8.56 15.1333ZM1.12083 10.198H4.48333C4.42 9.83091 4.37556 9.47305 4.35 9.12445C4.32333 8.77586 4.31 8.43352 4.31 8.09746C4.31 7.76139 4.32306 7.41906 4.34917 7.07046C4.37528 6.72186 4.41972 6.36371 4.4825 5.99601H1.1225C1.03194 6.3064 0.961111 6.64456 0.91 7.01047C0.858889 7.37638 0.833333 7.73871 0.833333 8.09746C0.833333 8.4568 0.858611 8.81913 0.909167 9.18444C0.960278 9.55035 1.03111 9.88821 1.12167 10.198M5.3175 10.198H9.6825C9.74583 9.83091 9.79028 9.47873 9.81583 9.14147C9.8425 8.8048 9.85583 8.4568 9.85583 8.09746C9.85583 7.73811 9.84278 7.39011 9.81667 7.05345C9.79056 6.71619 9.74611 6.36401 9.68333 5.9969H5.31667C5.25389 6.36401 5.20944 6.71619 5.18333 7.05345C5.15722 7.39011 5.14417 7.73811 5.14417 8.09746C5.14417 8.4568 5.15722 8.8048 5.18333 9.14147C5.20944 9.47873 5.25472 9.83091 5.3175 10.198ZM10.5167 10.198H13.8783C13.9689 9.88761 14.0397 9.54976 14.0908 9.18444C14.1419 8.81913 14.1672 8.4568 14.1667 8.09746C14.1667 7.73811 14.1414 7.37578 14.0908 7.01047C14.0397 6.64456 13.9689 6.3067 13.8783 5.9969H10.5158C10.5792 6.36401 10.6236 6.72186 10.6492 7.07046C10.6758 7.41906 10.6892 7.76139 10.6892 8.09746C10.6892 8.43352 10.6761 8.77586 10.65 9.12445C10.6239 9.47305 10.5794 9.83121 10.5167 10.1989M10.3433 5.10153H13.5383C13.05 3.96499 12.3811 3.05171 11.5317 2.36167C10.6817 1.67163 9.69139 1.2329 8.56083 1.04547C8.94972 1.59463 9.29944 2.22319 9.61 2.93113C9.92 3.63848 10.1644 4.36194 10.3433 5.10153ZM5.51583 5.10153H9.48417C9.26417 4.26106 8.99278 3.50119 8.67 2.82189C8.34778 2.142 7.95778 1.51047 7.5 0.927277C7.04278 1.51047 6.65278 2.142 6.33 2.82189C6.00778 3.50119 5.73639 4.26106 5.51583 5.10153ZM1.46167 5.10153H4.65667C4.83556 4.36194 5.08 3.63848 5.39 2.93113C5.70056 2.22319 6.05028 1.59433 6.43917 1.04457C5.29806 1.2326 4.30528 1.67432 3.46083 2.36973C2.61639 3.06574 1.94972 3.97604 1.46083 5.10063" fill="#8F98A1"/>
</svg>
